<mxfile host="app.diagrams.net" modified="2023-01-14T19:23:05.428Z" agent="5.0 (Windows NT 10.0; Win64; x64) AppleWebKit/537.36 (KHTML, like Gecko) Chrome/108.0.0.0 Safari/537.36" version="20.8.1" etag="Cax6JvxUQEKlVLtYlnvk" type="github">
  <diagram id="1IgY7ZS-LWMyu8MLhDzS" name="Page-1">
    <mxGraphModel dx="932" dy="887" grid="0" gridSize="10" guides="1" tooltips="1" connect="1" arrows="1" fold="1" page="1" pageScale="1" pageWidth="850" pageHeight="1100" math="0" shadow="0">
      <root>
        <mxCell id="0" />
        <mxCell id="1" parent="0" />
        <mxCell id="owPdKK2YttRc8hEFv2YH-17" value="" style="group" vertex="1" connectable="0" parent="1">
          <mxGeometry x="34" y="363" width="189" height="121" as="geometry" />
        </mxCell>
        <mxCell id="owPdKK2YttRc8hEFv2YH-3" value="shopping car ms" style="rounded=0;whiteSpace=wrap;html=1;" vertex="1" parent="owPdKK2YttRc8hEFv2YH-17">
          <mxGeometry width="189" height="121" as="geometry" />
        </mxCell>
        <mxCell id="owPdKK2YttRc8hEFv2YH-14" value="ribbon component" style="rounded=0;whiteSpace=wrap;html=1;" vertex="1" parent="owPdKK2YttRc8hEFv2YH-17">
          <mxGeometry x="32.5" y="23.8" width="125" height="19.2" as="geometry" />
        </mxCell>
        <mxCell id="owPdKK2YttRc8hEFv2YH-23" value="3.2. query ms(apply filter)" style="edgeStyle=orthogonalEdgeStyle;rounded=0;orthogonalLoop=1;jettySize=auto;html=1;entryX=1;entryY=0.443;entryDx=0;entryDy=0;entryPerimeter=0;dashed=1;" edge="1" parent="1" source="owPdKK2YttRc8hEFv2YH-4" target="owPdKK2YttRc8hEFv2YH-8">
          <mxGeometry relative="1" as="geometry" />
        </mxCell>
        <mxCell id="owPdKK2YttRc8hEFv2YH-24" value="3.3. response from instance ms" style="edgeStyle=orthogonalEdgeStyle;rounded=0;orthogonalLoop=1;jettySize=auto;html=1;entryX=0.25;entryY=0;entryDx=0;entryDy=0;dashed=1;exitX=0;exitY=1;exitDx=0;exitDy=0;" edge="1" parent="1" source="owPdKK2YttRc8hEFv2YH-4" target="owPdKK2YttRc8hEFv2YH-14">
          <mxGeometry relative="1" as="geometry">
            <mxPoint x="755" y="294" as="sourcePoint" />
            <Array as="points">
              <mxPoint x="452" y="209" />
              <mxPoint x="452" y="275" />
              <mxPoint x="98" y="275" />
            </Array>
          </mxGeometry>
        </mxCell>
        <mxCell id="owPdKK2YttRc8hEFv2YH-4" value="Eureka Server ms" style="rounded=1;whiteSpace=wrap;html=1;" vertex="1" parent="1">
          <mxGeometry x="483" y="104" width="120" height="105" as="geometry" />
        </mxCell>
        <mxCell id="owPdKK2YttRc8hEFv2YH-9" value="" style="group" vertex="1" connectable="0" parent="1">
          <mxGeometry x="34" y="95" width="190" height="140" as="geometry" />
        </mxCell>
        <mxCell id="owPdKK2YttRc8hEFv2YH-8" value="" style="rounded=0;whiteSpace=wrap;html=1;" vertex="1" parent="owPdKK2YttRc8hEFv2YH-9">
          <mxGeometry width="190" height="140" as="geometry" />
        </mxCell>
        <mxCell id="owPdKK2YttRc8hEFv2YH-5" value="" style="group" vertex="1" connectable="0" parent="owPdKK2YttRc8hEFv2YH-9">
          <mxGeometry x="20" y="20" width="150" height="100" as="geometry" />
        </mxCell>
        <mxCell id="owPdKK2YttRc8hEFv2YH-1" value="catalog ms" style="rounded=0;whiteSpace=wrap;html=1;" vertex="1" parent="owPdKK2YttRc8hEFv2YH-5">
          <mxGeometry width="120" height="60" as="geometry" />
        </mxCell>
        <mxCell id="owPdKK2YttRc8hEFv2YH-2" value="catalog ms" style="rounded=0;whiteSpace=wrap;html=1;" vertex="1" parent="owPdKK2YttRc8hEFv2YH-5">
          <mxGeometry x="30" y="40" width="120" height="60" as="geometry" />
        </mxCell>
        <mxCell id="owPdKK2YttRc8hEFv2YH-18" value="2. register" style="edgeStyle=orthogonalEdgeStyle;rounded=0;orthogonalLoop=1;jettySize=auto;html=1;entryX=0.5;entryY=1;entryDx=0;entryDy=0;" edge="1" parent="1" source="owPdKK2YttRc8hEFv2YH-3" target="owPdKK2YttRc8hEFv2YH-4">
          <mxGeometry relative="1" as="geometry" />
        </mxCell>
        <mxCell id="owPdKK2YttRc8hEFv2YH-19" value="3.1. request catalog ms&lt;br&gt;( load balancer)" style="edgeStyle=orthogonalEdgeStyle;orthogonalLoop=1;jettySize=auto;html=1;rounded=0;dashed=1;entryX=0.316;entryY=0.993;entryDx=0;entryDy=0;entryPerimeter=0;" edge="1" parent="1" source="owPdKK2YttRc8hEFv2YH-14" target="owPdKK2YttRc8hEFv2YH-4">
          <mxGeometry relative="1" as="geometry">
            <mxPoint x="642" y="285" as="targetPoint" />
            <Array as="points">
              <mxPoint x="129" y="314" />
              <mxPoint x="524" y="314" />
              <mxPoint x="524" y="208" />
            </Array>
          </mxGeometry>
        </mxCell>
        <mxCell id="owPdKK2YttRc8hEFv2YH-21" value="1. register" style="edgeStyle=orthogonalEdgeStyle;rounded=0;orthogonalLoop=1;jettySize=auto;html=1;exitX=1;exitY=0.25;exitDx=0;exitDy=0;entryX=0;entryY=0.25;entryDx=0;entryDy=0;" edge="1" parent="1" source="owPdKK2YttRc8hEFv2YH-8" target="owPdKK2YttRc8hEFv2YH-4">
          <mxGeometry relative="1" as="geometry" />
        </mxCell>
        <mxCell id="owPdKK2YttRc8hEFv2YH-26" value="RIBBON" style="text;html=1;strokeColor=none;fillColor=none;align=center;verticalAlign=middle;whiteSpace=wrap;rounded=0;" vertex="1" parent="1">
          <mxGeometry x="321" y="45" width="60" height="30" as="geometry" />
        </mxCell>
      </root>
    </mxGraphModel>
  </diagram>
</mxfile>
